/* XPM */
static char * arena_xpm[] = {
/* width height num_colors chars_per_pixel */
"60 50 34 1",
/* colors */
" 	s background	c None",
".	c #d7929a",
"X	c #ffaed7",
"o	c #ffae9a",
"O	c #ff0000",
"+	c #9a0000",
"@	c #ff6900",
"#	c #ff929a",
"$	c #9affd7",
"%	c #9aff9a",
"&	c #9a9a9a",
"*	c #9a69d7",
"=	c #656565",
"-	c #9a69ff",
";	c #0000d7",
":	c #00009a",
">	c #00c79a",
",	c #00db9a",
"<	c #00c700",
"1	c #006900",
"2	c #797979",
"3	c #9a92d7",
"4	c #8e8e8e",
"5	c #0069d7",
"6	c #9adb9a",
"7	c black",
"8	c #d7ae9a",
"9	c #d7ae00",
"0	c #0092ff",
"q	c #0000ff",
"w	c #9a699a",
"e	c #00699a",
"r	c #9a92ff",
"t	c #00ff9a",
/* pixels */
"                                                            ",
"                                                            ",
"                                                            ",
"                                                            ",
"                                                            ",
"                                                            ",
"                                                            ",
"                                                            ",
"                                                            ",
"                              .XXo.X                        ",
"                             oOOOOOO +                      ",
"                            XOO+++OO@O                      ",
"                            #O+   XOOO+                     ",
"                           XOO    .OOO                      ",
"                             +    XOOO+                     ",
"                                X#OO@+                      ",
"                            .oXoOOOO                        ",
"                           XOOOOOO                          ",
"                             +++OO@+                        ",
"                                +OOO+                       ",
"                                 oOOO+                      ",
"    $%%$$%%      %%$$%      $%%$$oOOO+ &**=-;;:             ",
"    %>,><>1      $,><1    X %>,>1oOOO&234&&5::*;:           ",
"     %<>,<1     $<<>6>1  #O+$<<>1OOO22&&&&3;*::;*;          ",
"     $,><>,1    %>,><>1 .OO+%>,1#OO2=&&&4&*;:;;;::;         ",
"     %<>>><1    $><>,>1 XOOO$><1OO7:2898&30-q;:;;;:;        ",
"     $,><>,1   %<>,><>,17+O%<>,1O+w:28o83q-55;-;;;*;        ",
"      %>,<<1   $,<<>,<<177+$6<<1+77:*e4&&33r-3&&&33;*       ",
"      $><>,>1  %<>,><>,177$><>1  :e::;;2e*-r3&&&4&&2:       ",
"      t>,><>1 %>>><>>><>17%>,>1  :7::;:;;q;q-&4&&&42:       ",
"       %<>,>1 $><1,><>,>17$><1   :w::;*;:q-;53&&4&&2:       ",
"       $,<<>1 %>,1 $,<<>17%>,1     :*;:;*;;q-54&&&&2*       ",
"       %<>,><>,><1 %<>,><>,><1   :e:::5;:;;;:;*548&;:       ",
"       $>><>>><>1  $,><>>><>1    :7::::;;;:;;;:*&89;:       ",
"        %>,><>,>1   %>,><>,>1    :w7::*;:;*;:;5;28*::       ",
"        $<<>6<<11   $<<>,<<>1      :w::;*;:;*;:;28e:        ",
"        %>,><>,1    %>,><>,1      e77:e::;;;:;5;=3e:        ",
"         %<>,><1     %<>>><1       ::::::;:;;;::*;:         ",
"         $,><>,1     $,><>,1         :w:::*:::*:=:          ",
"         %<>,<1      %<>,<1            :w77:w77:w           ",
"          11111      $11111            4 :e  :4             ",
"                                                            ",
"                                                            ",
"                                                            ",
"                                                            ",
"                                                            ",
"                                                            ",
"                                                            ",
"                                                            ",
"                                                            "};
