<?xml version="1.0" encoding="UTF-8" standalone="no"?><svg xmlns="http://www.w3.org/2000/svg" xmlns:xlink="http://www.w3.org/1999/xlink" contentScriptType="application/ecmascript" contentStyleType="text/css" height="182px" preserveAspectRatio="none" style="width:570px;height:182px;" version="1.1" viewBox="0 0 570 182" width="570px" zoomAndPan="magnify"><defs><filter height="300%" id="f14qi3w2xxob6e" width="300%" x="-1" y="-1"><feGaussianBlur result="blurOut" stdDeviation="2.0"/><feColorMatrix in="blurOut" result="blurOut2" type="matrix" values="0 0 0 0 0 0 0 0 0 0 0 0 0 0 0 0 0 0 .4 0"/><feOffset dx="4.0" dy="4.0" in="blurOut2" result="blurOut3"/><feBlend in="SourceGraphic" in2="blurOut3" mode="normal"/></filter></defs><g><!--class fstream--><rect fill="#FEFECE" filter="url(#f14qi3w2xxob6e)" height="48" id="fstream" style="stroke: #A80036; stroke-width: 1.5;" width="80" x="479" y="65.5"/><ellipse cx="494" cy="81.5" fill="#ADD1B2" rx="11" ry="11" style="stroke: #A80036; stroke-width: 1.0;"/><path d="M496.3438,77.1719 L496.5156,77.25 C496.7344,76.9375 496.9375,76.8438 497.2344,76.8438 C497.5313,76.8438 497.8125,76.9844 497.9688,77.25 C498.0625,77.4063 498.0781,77.5313 498.0781,77.9688 L498.0781,79.3906 C498.0781,79.8125 498.0469,80 497.9375,80.1563 C497.7656,80.375 497.5,80.5156 497.2344,80.5156 C497.0156,80.5156 496.7813,80.4063 496.6406,80.2656 C496.5,80.1406 496.4688,80.0156 496.4063,79.6094 C496.3125,79.2031 496.1406,78.9844 495.6563,78.7031 C495.1875,78.4531 494.5781,78.2969 494,78.2969 C492.2656,78.2969 491.0156,79.6094 491.0156,81.3906 L491.0156,82.4844 C491.0156,84.1875 492.3125,85.2813 494.3594,85.2813 C495.125,85.2813 495.8125,85.1563 496.2344,84.8906 C496.4219,84.7969 496.4219,84.7969 496.875,84.3125 C497.0625,84.125 497.2656,84.0469 497.4844,84.0469 C497.9531,84.0469 498.3438,84.4375 498.3438,84.8906 C498.3438,85.2813 498.0156,85.7344 497.4375,86.1406 C496.6875,86.6875 495.5313,86.9844 494.3125,86.9844 C491.4219,86.9844 489.3125,85.0938 489.3125,82.5156 L489.3125,81.3906 C489.3125,78.6719 491.3125,76.5938 493.9375,76.5938 C494.8125,76.5938 495.4063,76.7344 496.3438,77.1719 Z "/><text fill="#000000" font-family="sans-serif" font-size="12" lengthAdjust="spacingAndGlyphs" textLength="48" x="508" y="85.6543">fstream</text><line style="stroke: #A80036; stroke-width: 1.5;" x1="480" x2="558" y1="97.5" y2="97.5"/><line style="stroke: #A80036; stroke-width: 1.5;" x1="480" x2="558" y1="105.5" y2="105.5"/><!--class Crypteur--><rect fill="#FEFECE" filter="url(#f14qi3w2xxob6e)" height="163.2422" id="Crypteur" style="stroke: #A80036; stroke-width: 1.5;" width="414" x="6" y="8"/><ellipse cx="182.25" cy="24" fill="#ADD1B2" rx="11" ry="11" style="stroke: #A80036; stroke-width: 1.0;"/><path d="M184.5938,19.6719 L184.7656,19.75 C184.9844,19.4375 185.1875,19.3438 185.4844,19.3438 C185.7813,19.3438 186.0625,19.4844 186.2188,19.75 C186.3125,19.9063 186.3281,20.0313 186.3281,20.4688 L186.3281,21.8906 C186.3281,22.3125 186.2969,22.5 186.1875,22.6563 C186.0156,22.875 185.75,23.0156 185.4844,23.0156 C185.2656,23.0156 185.0313,22.9063 184.8906,22.7656 C184.75,22.6406 184.7188,22.5156 184.6563,22.1094 C184.5625,21.7031 184.3906,21.4844 183.9063,21.2031 C183.4375,20.9531 182.8281,20.7969 182.25,20.7969 C180.5156,20.7969 179.2656,22.1094 179.2656,23.8906 L179.2656,24.9844 C179.2656,26.6875 180.5625,27.7813 182.6094,27.7813 C183.375,27.7813 184.0625,27.6563 184.4844,27.3906 C184.6719,27.2969 184.6719,27.2969 185.125,26.8125 C185.3125,26.625 185.5156,26.5469 185.7344,26.5469 C186.2031,26.5469 186.5938,26.9375 186.5938,27.3906 C186.5938,27.7813 186.2656,28.2344 185.6875,28.6406 C184.9375,29.1875 183.7813,29.4844 182.5625,29.4844 C179.6719,29.4844 177.5625,27.5938 177.5625,25.0156 L177.5625,23.8906 C177.5625,21.1719 179.5625,19.0938 182.1875,19.0938 C183.0625,19.0938 183.6563,19.2344 184.5938,19.6719 Z "/><text fill="#000000" font-family="sans-serif" font-size="12" lengthAdjust="spacingAndGlyphs" textLength="53" x="202.75" y="28.1543">Crypteur</text><line style="stroke: #A80036; stroke-width: 1.5;" x1="7" x2="419" y1="40" y2="40"/><text fill="#000000" font-family="sans-serif" font-size="11" lengthAdjust="spacingAndGlyphs" textLength="61" x="12" y="54.2104">string clef;</text><line style="stroke: #A80036; stroke-width: 1.5;" x1="7" x2="419" y1="60.8047" y2="60.8047"/><text fill="#000000" font-family="sans-serif" font-size="11" lengthAdjust="spacingAndGlyphs" textLength="139" x="26" y="75.0151">Crypteur(string uneclef);</text><text fill="#000000" font-family="sans-serif" font-size="11" lengthAdjust="spacingAndGlyphs" textLength="122" x="26" y="87.8198">string getclef() const;</text><text fill="#000000" font-family="sans-serif" font-size="11" lengthAdjust="spacingAndGlyphs" textLength="176" x="26" y="100.6245">void setclef(const string aclef);</text><text fill="#000000" font-family="sans-serif" font-size="11" lengthAdjust="spacingAndGlyphs" textLength="155" x="26" y="113.4292">int getlongueurClef() const;</text><text fill="#000000" font-family="sans-serif" font-size="11" lengthAdjust="spacingAndGlyphs" textLength="368" x="26" y="126.2339">void crypter(const char *fichierEntree, const char *fichierSortie);</text><polygon fill="#4177AF" points="17,132.7305,13,138.7305,21,138.7305" style="stroke: #1963A0; stroke-width: 1.0;"/><text fill="#000000" font-family="sans-serif" font-size="11" lengthAdjust="spacingAndGlyphs" textLength="61" x="26" y="139.0386">Crypteur();</text><text fill="#000000" font-family="sans-serif" font-size="11" lengthAdjust="spacingAndGlyphs" textLength="388" x="26" y="151.8433">friend ostream &amp;operator&lt;&lt;(ostream &amp;os, Crypteur &amp;unCrypteur);</text><text fill="#000000" font-family="sans-serif" font-size="11" lengthAdjust="spacingAndGlyphs" textLength="376" x="26" y="164.6479">friend istream &amp;operator&gt;&gt;(istream &amp;is, Crypteur &amp;unCrypteur);</text><!--link Crypteur to fstream--><path d="M433.27,89.5 C450.202,89.5 465.761,89.5 478.842,89.5 " fill="none" id="Crypteur-fstream" style="stroke: #A80036; stroke-width: 1.0;"/><polygon fill="#A80036" points="420.073,89.5,426.073,93.5,432.073,89.5,426.073,85.5,420.073,89.5" style="stroke: #A80036; stroke-width: 1.0;"/><text fill="#000000" font-family="sans-serif" font-size="13" lengthAdjust="spacingAndGlyphs" textLength="22" x="438.5" y="82.5669">flux</text><text fill="#000000" font-family="sans-serif" font-size="13" lengthAdjust="spacingAndGlyphs" textLength="8" x="428.318" y="86.2718">1</text><text fill="#000000" font-family="sans-serif" font-size="13" lengthAdjust="spacingAndGlyphs" textLength="8" x="462.9764" y="85.2428">2</text><!--
@startuml
class fstream {
}

class Crypteur {
    string clef;

    Crypteur(string uneclef);
    string getclef() const;
    void setclef(const string aclef);
    int getlongueurClef() const;
    void crypter(const char *fichierEntree, const char *fichierSortie);
    ~Crypteur();
    friend ostream &operator<<(ostream &os, Crypteur &unCrypteur);
    friend istream &operator>>(istream &is, Crypteur &unCrypteur);
}

Crypteur "1" *-right- "2" fstream: flux
@enduml

PlantUML version 1.2018.02(Fri Mar 09 17:20:44 UTC 2018)
(GPL source distribution)
Java Runtime: Java(TM) SE Runtime Environment
JVM: Java HotSpot(TM) 64-Bit Server VM
Java Version: 1.7.0_25-b15
Operating System: Linux
Default Encoding: UTF-8
Language: en
Country: US
--></g></svg>