<?xml version="1.0" encoding="UTF-8" standalone="no"?><svg xmlns="http://www.w3.org/2000/svg" xmlns:xlink="http://www.w3.org/1999/xlink" contentScriptType="application/ecmascript" contentStyleType="text/css" height="358px" preserveAspectRatio="none" style="width:600px;height:358px;" version="1.1" viewBox="0 0 600 358" width="600px" zoomAndPan="magnify"><defs><filter height="300%" id="f19byke7vjmjfa" width="300%" x="-1" y="-1"><feGaussianBlur result="blurOut" stdDeviation="2.0"/><feColorMatrix in="blurOut" result="blurOut2" type="matrix" values="0 0 0 0 0 0 0 0 0 0 0 0 0 0 0 0 0 0 .4 0"/><feOffset dx="4.0" dy="4.0" in="blurOut2" result="blurOut3"/><feBlend in="SourceGraphic" in2="blurOut3" mode="normal"/></filter></defs><g><!--class fstream--><rect fill="#FEFECE" filter="url(#f19byke7vjmjfa)" height="48" id="fstream" style="stroke: #A80036; stroke-width: 1.5;" width="80" x="509" y="72"/><ellipse cx="524" cy="88" fill="#ADD1B2" rx="11" ry="11" style="stroke: #A80036; stroke-width: 1.0;"/><path d="M526.3438,83.6719 L526.5156,83.75 C526.7344,83.4375 526.9375,83.3438 527.2344,83.3438 C527.5313,83.3438 527.8125,83.4844 527.9688,83.75 C528.0625,83.9063 528.0781,84.0313 528.0781,84.4688 L528.0781,85.8906 C528.0781,86.3125 528.0469,86.5 527.9375,86.6563 C527.7656,86.875 527.5,87.0156 527.2344,87.0156 C527.0156,87.0156 526.7813,86.9063 526.6406,86.7656 C526.5,86.6406 526.4688,86.5156 526.4063,86.1094 C526.3125,85.7031 526.1406,85.4844 525.6563,85.2031 C525.1875,84.9531 524.5781,84.7969 524,84.7969 C522.2656,84.7969 521.0156,86.1094 521.0156,87.8906 L521.0156,88.9844 C521.0156,90.6875 522.3125,91.7813 524.3594,91.7813 C525.125,91.7813 525.8125,91.6563 526.2344,91.3906 C526.4219,91.2969 526.4219,91.2969 526.875,90.8125 C527.0625,90.625 527.2656,90.5469 527.4844,90.5469 C527.9531,90.5469 528.3438,90.9375 528.3438,91.3906 C528.3438,91.7813 528.0156,92.2344 527.4375,92.6406 C526.6875,93.1875 525.5313,93.4844 524.3125,93.4844 C521.4219,93.4844 519.3125,91.5938 519.3125,89.0156 L519.3125,87.8906 C519.3125,85.1719 521.3125,83.0938 523.9375,83.0938 C524.8125,83.0938 525.4063,83.2344 526.3438,83.6719 Z "/><text fill="#000000" font-family="sans-serif" font-size="12" lengthAdjust="spacingAndGlyphs" textLength="48" x="538" y="92.1543">fstream</text><line style="stroke: #A80036; stroke-width: 1.5;" x1="510" x2="588" y1="104" y2="104"/><line style="stroke: #A80036; stroke-width: 1.5;" x1="510" x2="588" y1="112" y2="112"/><!--class Crypteur--><rect fill="#FEFECE" filter="url(#f19byke7vjmjfa)" height="176.0469" id="Crypteur" style="stroke: #A80036; stroke-width: 1.5;" width="444" x="6" y="8"/><ellipse cx="197.25" cy="24" fill="#ADD1B2" rx="11" ry="11" style="stroke: #A80036; stroke-width: 1.0;"/><path d="M199.5938,19.6719 L199.7656,19.75 C199.9844,19.4375 200.1875,19.3438 200.4844,19.3438 C200.7813,19.3438 201.0625,19.4844 201.2188,19.75 C201.3125,19.9063 201.3281,20.0313 201.3281,20.4688 L201.3281,21.8906 C201.3281,22.3125 201.2969,22.5 201.1875,22.6563 C201.0156,22.875 200.75,23.0156 200.4844,23.0156 C200.2656,23.0156 200.0313,22.9063 199.8906,22.7656 C199.75,22.6406 199.7188,22.5156 199.6563,22.1094 C199.5625,21.7031 199.3906,21.4844 198.9063,21.2031 C198.4375,20.9531 197.8281,20.7969 197.25,20.7969 C195.5156,20.7969 194.2656,22.1094 194.2656,23.8906 L194.2656,24.9844 C194.2656,26.6875 195.5625,27.7813 197.6094,27.7813 C198.375,27.7813 199.0625,27.6563 199.4844,27.3906 C199.6719,27.2969 199.6719,27.2969 200.125,26.8125 C200.3125,26.625 200.5156,26.5469 200.7344,26.5469 C201.2031,26.5469 201.5938,26.9375 201.5938,27.3906 C201.5938,27.7813 201.2656,28.2344 200.6875,28.6406 C199.9375,29.1875 198.7813,29.4844 197.5625,29.4844 C194.6719,29.4844 192.5625,27.5938 192.5625,25.0156 L192.5625,23.8906 C192.5625,21.1719 194.5625,19.0938 197.1875,19.0938 C198.0625,19.0938 198.6563,19.2344 199.5938,19.6719 Z "/><text fill="#000000" font-family="sans-serif" font-size="12" lengthAdjust="spacingAndGlyphs" textLength="53" x="217.75" y="28.1543">Crypteur</text><line style="stroke: #A80036; stroke-width: 1.5;" x1="7" x2="449" y1="40" y2="40"/><text fill="#000000" font-family="sans-serif" font-size="11" lengthAdjust="spacingAndGlyphs" textLength="61" x="12" y="54.2104">string clef;</text><line style="stroke: #A80036; stroke-width: 1.5;" x1="7" x2="449" y1="60.8047" y2="60.8047"/><text fill="#000000" font-family="sans-serif" font-size="11" lengthAdjust="spacingAndGlyphs" textLength="139" x="12" y="75.0151">Crypteur(string uneclef);</text><text fill="#000000" font-family="sans-serif" font-size="11" lengthAdjust="spacingAndGlyphs" textLength="61" x="12" y="87.8198">Crypteur();</text><text fill="#000000" font-family="sans-serif" font-size="11" lengthAdjust="spacingAndGlyphs" textLength="122" x="12" y="100.6245">string getclef() const;</text><text fill="#000000" font-family="sans-serif" font-size="11" lengthAdjust="spacingAndGlyphs" textLength="186" x="12" y="113.4292">void setclef(const string &amp;aclef);</text><text fill="#000000" font-family="sans-serif" font-size="11" lengthAdjust="spacingAndGlyphs" textLength="155" x="12" y="126.2339">int getlongueurClef() const;</text><text fill="#000000" font-family="sans-serif" font-size="11" lengthAdjust="spacingAndGlyphs" textLength="432" x="12" y="139.0386">virtual void chiffrer(const char *fichierEntree, const char *fichierSortie) = 0;</text><text fill="#000000" font-family="sans-serif" font-size="11" lengthAdjust="spacingAndGlyphs" textLength="341" x="12" y="151.8433">virtual void chiffrer(istream &amp;entree, ostream &amp;sortie) = 0;</text><text fill="#000000" font-family="sans-serif" font-size="11" lengthAdjust="spacingAndGlyphs" textLength="388" x="12" y="164.6479">friend ostream &amp;operator&lt;&lt;(ostream &amp;os, Crypteur &amp;unCrypteur);</text><text fill="#000000" font-family="sans-serif" font-size="11" lengthAdjust="spacingAndGlyphs" textLength="376" x="12" y="177.4526">friend istream &amp;operator&gt;&gt;(istream &amp;is, Crypteur &amp;unCrypteur);</text><!--class CrypteurXOR--><rect fill="#FEFECE" filter="url(#f19byke7vjmjfa)" height="86.4141" id="CrypteurXOR" style="stroke: #A80036; stroke-width: 1.5;" width="381" x="37.5" y="261"/><ellipse cx="185.25" cy="277" fill="#ADD1B2" rx="11" ry="11" style="stroke: #A80036; stroke-width: 1.0;"/><path d="M187.5938,272.6719 L187.7656,272.75 C187.9844,272.4375 188.1875,272.3438 188.4844,272.3438 C188.7813,272.3438 189.0625,272.4844 189.2188,272.75 C189.3125,272.9063 189.3281,273.0313 189.3281,273.4688 L189.3281,274.8906 C189.3281,275.3125 189.2969,275.5 189.1875,275.6563 C189.0156,275.875 188.75,276.0156 188.4844,276.0156 C188.2656,276.0156 188.0313,275.9063 187.8906,275.7656 C187.75,275.6406 187.7188,275.5156 187.6563,275.1094 C187.5625,274.7031 187.3906,274.4844 186.9063,274.2031 C186.4375,273.9531 185.8281,273.7969 185.25,273.7969 C183.5156,273.7969 182.2656,275.1094 182.2656,276.8906 L182.2656,277.9844 C182.2656,279.6875 183.5625,280.7813 185.6094,280.7813 C186.375,280.7813 187.0625,280.6563 187.4844,280.3906 C187.6719,280.2969 187.6719,280.2969 188.125,279.8125 C188.3125,279.625 188.5156,279.5469 188.7344,279.5469 C189.2031,279.5469 189.5938,279.9375 189.5938,280.3906 C189.5938,280.7813 189.2656,281.2344 188.6875,281.6406 C187.9375,282.1875 186.7813,282.4844 185.5625,282.4844 C182.6719,282.4844 180.5625,280.5938 180.5625,278.0156 L180.5625,276.8906 C180.5625,274.1719 182.5625,272.0938 185.1875,272.0938 C186.0625,272.0938 186.6563,272.2344 187.5938,272.6719 Z "/><text fill="#000000" font-family="sans-serif" font-size="12" lengthAdjust="spacingAndGlyphs" textLength="77" x="205.75" y="281.1543">CrypteurXOR</text><line style="stroke: #A80036; stroke-width: 1.5;" x1="38.5" x2="417.5" y1="293" y2="293"/><line style="stroke: #A80036; stroke-width: 1.5;" x1="38.5" x2="417.5" y1="301" y2="301"/><text fill="#000000" font-family="sans-serif" font-size="11" lengthAdjust="spacingAndGlyphs" textLength="162" x="43.5" y="315.2104">CrypteurXOR(string uneclef);</text><text fill="#000000" font-family="sans-serif" font-size="11" lengthAdjust="spacingAndGlyphs" textLength="369" x="43.5" y="328.0151">void chiffrer(const char *fichierEntree, const char *fichierSortie);</text><text fill="#000000" font-family="sans-serif" font-size="11" lengthAdjust="spacingAndGlyphs" textLength="278" x="43.5" y="340.8198">void chiffrer(istream &amp;entree, ostream &amp;sortie);</text><!--link Crypteur to fstream--><path d="M463.228,96 C480.095,96 495.545,96 508.543,96 " fill="none" id="Crypteur-fstream" style="stroke: #A80036; stroke-width: 1.0;"/><polygon fill="#A80036" points="450.07,96,456.07,100,462.07,96,456.07,92,450.07,96" style="stroke: #A80036; stroke-width: 1.0;"/><text fill="#000000" font-family="sans-serif" font-size="13" lengthAdjust="spacingAndGlyphs" textLength="22" x="468.5" y="89.0669">flux</text><text fill="#000000" font-family="sans-serif" font-size="13" lengthAdjust="spacingAndGlyphs" textLength="8" x="458.1944" y="92.7989">1</text><text fill="#000000" font-family="sans-serif" font-size="13" lengthAdjust="spacingAndGlyphs" textLength="8" x="492.902" y="91.7892">2</text><!--link Crypteur to CrypteurXOR--><path d="M228,204.152 C228,224.284 228,244.203 228,260.8284 " fill="none" id="Crypteur-CrypteurXOR" style="stroke: #A80036; stroke-width: 1.0;"/><polygon fill="none" points="221,204.064,228,184.064,235,204.064,221,204.064" style="stroke: #A80036; stroke-width: 1.0;"/><text fill="#000000" font-family="sans-serif" font-size="13" lengthAdjust="spacingAndGlyphs" textLength="71" x="229" y="227.0669">Inheritance</text><!--
@startuml
class fstream {
}

class Crypteur {
    string clef;

    Crypteur(string uneclef);
    Crypteur();
    string getclef() const;
    void setclef(const string &aclef);
    int getlongueurClef() const;
    virtual void chiffrer(const char *fichierEntree, const char *fichierSortie) = 0;
    virtual void chiffrer(istream &entree, ostream &sortie) = 0;
    friend ostream &operator<<(ostream &os, Crypteur &unCrypteur);
    friend istream &operator>>(istream &is, Crypteur &unCrypteur);
}

class CrypteurXOR {
    CrypteurXOR(string uneclef);
    void chiffrer(const char *fichierEntree, const char *fichierSortie);
    void chiffrer(istream &entree, ostream &sortie);
}

Crypteur "1" *-right- "2" fstream: flux
Crypteur <|-down- CrypteurXOR: Inheritance
@enduml

PlantUML version 1.2018.02(Fri Mar 09 17:20:44 UTC 2018)
(GPL source distribution)
Java Runtime: Java(TM) SE Runtime Environment
JVM: Java HotSpot(TM) 64-Bit Server VM
Java Version: 1.7.0_25-b15
Operating System: Linux
Default Encoding: UTF-8
Language: en
Country: US
--></g></svg>