<?xml version="1.0" encoding="UTF-8" standalone="no"?><svg xmlns="http://www.w3.org/2000/svg" xmlns:xlink="http://www.w3.org/1999/xlink" contentScriptType="application/ecmascript" contentStyleType="text/css" height="314px" preserveAspectRatio="none" style="width:660px;height:314px;" version="1.1" viewBox="0 0 660 314" width="660px" zoomAndPan="magnify"><defs><filter height="300%" id="fvvr85ovq7poy" width="300%" x="-1" y="-1"><feGaussianBlur result="blurOut" stdDeviation="2.0"/><feColorMatrix in="blurOut" result="blurOut2" type="matrix" values="0 0 0 0 0 0 0 0 0 0 0 0 0 0 0 0 0 0 .4 0"/><feOffset dx="4.0" dy="4.0" in="blurOut2" result="blurOut3"/><feBlend in="SourceGraphic" in2="blurOut3" mode="normal"/></filter></defs><g><!--cluster compression--><polygon fill="#FFFFFF" filter="url(#fvvr85ovq7poy)" points="22,24,130,24,137,46.2969,638,46.2969,638,302,22,302,22,24" style="stroke: #000000; stroke-width: 1.5;"/><line style="stroke: #000000; stroke-width: 1.5;" x1="22" x2="137" y1="46.2969" y2="46.2969"/><text fill="#000000" font-family="sans-serif" font-size="14" font-weight="bold" lengthAdjust="spacingAndGlyphs" textLength="102" x="26" y="38.9951">compression</text><!--class compression.RleCompressor--><rect fill="#FEFECE" filter="url(#fvvr85ovq7poy)" height="227.2656" id="compression.RleCompressor" style="stroke: #A80036; stroke-width: 1.5;" width="442" x="38" y="59"/><ellipse cx="207.75" cy="75" fill="#ADD1B2" rx="11" ry="11" style="stroke: #A80036; stroke-width: 1.0;"/><path d="M210.0938,70.6719 L210.2656,70.75 C210.4844,70.4375 210.6875,70.3438 210.9844,70.3438 C211.2813,70.3438 211.5625,70.4844 211.7188,70.75 C211.8125,70.9063 211.8281,71.0313 211.8281,71.4688 L211.8281,72.8906 C211.8281,73.3125 211.7969,73.5 211.6875,73.6563 C211.5156,73.875 211.25,74.0156 210.9844,74.0156 C210.7656,74.0156 210.5313,73.9063 210.3906,73.7656 C210.25,73.6406 210.2188,73.5156 210.1563,73.1094 C210.0625,72.7031 209.8906,72.4844 209.4063,72.2031 C208.9375,71.9531 208.3281,71.7969 207.75,71.7969 C206.0156,71.7969 204.7656,73.1094 204.7656,74.8906 L204.7656,75.9844 C204.7656,77.6875 206.0625,78.7813 208.1094,78.7813 C208.875,78.7813 209.5625,78.6563 209.9844,78.3906 C210.1719,78.2969 210.1719,78.2969 210.625,77.8125 C210.8125,77.625 211.0156,77.5469 211.2344,77.5469 C211.7031,77.5469 212.0938,77.9375 212.0938,78.3906 C212.0938,78.7813 211.7656,79.2344 211.1875,79.6406 C210.4375,80.1875 209.2813,80.4844 208.0625,80.4844 C205.1719,80.4844 203.0625,78.5938 203.0625,76.0156 L203.0625,74.8906 C203.0625,72.1719 205.0625,70.0938 207.6875,70.0938 C208.5625,70.0938 209.1563,70.2344 210.0938,70.6719 Z "/><text fill="#000000" font-family="sans-serif" font-size="12" lengthAdjust="spacingAndGlyphs" textLength="94" x="228.25" y="79.1543">RleCompressor</text><line style="stroke: #A80036; stroke-width: 1.5;" x1="39" x2="479" y1="91" y2="91"/><rect fill="none" height="6" style="stroke: #C82930; stroke-width: 1.0;" width="6" x="46" y="99.9023"/><text fill="#000000" font-family="sans-serif" font-size="11" lengthAdjust="spacingAndGlyphs" textLength="82" x="58" y="105.2104">int threshold_;</text><rect fill="none" height="6" style="stroke: #C82930; stroke-width: 1.0;" width="6" x="46" y="112.707"/><text fill="#000000" font-family="sans-serif" font-size="11" lengthAdjust="spacingAndGlyphs" textLength="111" x="58" y="118.0151">int repetitionCode_;</text><rect fill="none" height="6" style="stroke: #C82930; stroke-width: 1.0;" width="6" x="46" y="125.5117"/><text fill="#000000" font-family="sans-serif" font-size="11" lengthAdjust="spacingAndGlyphs" textLength="62" x="58" y="130.8198">float rate_;</text><line style="stroke: #A80036; stroke-width: 1.5;" x1="39" x2="479" y1="137.4141" y2="137.4141"/><ellipse cx="49" cy="149.3164" fill="#84BE84" rx="3" ry="3" style="stroke: #038048; stroke-width: 1.0;"/><text fill="#000000" font-family="sans-serif" font-size="11" lengthAdjust="spacingAndGlyphs" textLength="281" x="58" y="151.6245">RleCompressor(int threshold, int repetitionCode);</text><ellipse cx="49" cy="162.1211" fill="#84BE84" rx="3" ry="3" style="stroke: #038048; stroke-width: 1.0;"/><text fill="#000000" font-family="sans-serif" font-size="11" lengthAdjust="spacingAndGlyphs" textLength="109" x="58" y="164.4292">~RleCompressor();</text><ellipse cx="49" cy="174.9258" fill="#84BE84" rx="3" ry="3" style="stroke: #038048; stroke-width: 1.0;"/><text fill="#000000" font-family="sans-serif" font-size="11" lengthAdjust="spacingAndGlyphs" textLength="140" x="58" y="177.2339">int getThreshold() const;</text><ellipse cx="49" cy="187.7305" fill="#84BE84" rx="3" ry="3" style="stroke: #038048; stroke-width: 1.0;"/><text fill="#000000" font-family="sans-serif" font-size="11" lengthAdjust="spacingAndGlyphs" textLength="168" x="58" y="190.0386">int getRepetitionCode() const;</text><ellipse cx="49" cy="200.5352" fill="#84BE84" rx="3" ry="3" style="stroke: #038048; stroke-width: 1.0;"/><text fill="#000000" font-family="sans-serif" font-size="11" lengthAdjust="spacingAndGlyphs" textLength="119" x="58" y="202.8433">float getRate() const;</text><ellipse cx="49" cy="213.3398" fill="#84BE84" rx="3" ry="3" style="stroke: #038048; stroke-width: 1.0;"/><text fill="#000000" font-family="sans-serif" font-size="11" lengthAdjust="spacingAndGlyphs" textLength="221" x="58" y="215.6479">void setThreshold(const int threshold);</text><ellipse cx="49" cy="226.1445" fill="#84BE84" rx="3" ry="3" style="stroke: #038048; stroke-width: 1.0;"/><text fill="#000000" font-family="sans-serif" font-size="11" lengthAdjust="spacingAndGlyphs" textLength="278" x="58" y="228.4526">void setRepetitionCode(const int repetitionCode);</text><ellipse cx="49" cy="238.9492" fill="#84BE84" rx="3" ry="3" style="stroke: #038048; stroke-width: 1.0;"/><text fill="#000000" font-family="sans-serif" font-size="11" lengthAdjust="spacingAndGlyphs" textLength="276" x="58" y="241.2573">void compress(string inputfile, string outputfile);</text><ellipse cx="49" cy="251.7539" fill="#84BE84" rx="3" ry="3" style="stroke: #038048; stroke-width: 1.0;"/><text fill="#000000" font-family="sans-serif" font-size="11" lengthAdjust="spacingAndGlyphs" textLength="290" x="58" y="254.062">void decompress(string inputfile, string outputfile);</text><ellipse cx="49" cy="264.5586" fill="#84BE84" rx="3" ry="3" style="stroke: #038048; stroke-width: 1.0;"/><text fill="#000000" font-family="sans-serif" font-size="11" lengthAdjust="spacingAndGlyphs" textLength="416" x="58" y="266.8667">friend ostream &amp;operator&lt;&lt;(ostream &amp;os, Compressor &amp;compressor);</text><ellipse cx="49" cy="277.3633" fill="#84BE84" rx="3" ry="3" style="stroke: #038048; stroke-width: 1.0;"/><text fill="#000000" font-family="sans-serif" font-size="11" lengthAdjust="spacingAndGlyphs" textLength="404" x="58" y="279.6714">friend istream &amp;operator&gt;&gt;(istream &amp;is, Compressor &amp;compressor);</text><!--class compression.fstream--><rect fill="#FEFECE" filter="url(#fvvr85ovq7poy)" height="48" id="compression.fstream" style="stroke: #A80036; stroke-width: 1.5;" width="80" x="542" y="148.5"/><ellipse cx="557" cy="164.5" fill="#ADD1B2" rx="11" ry="11" style="stroke: #A80036; stroke-width: 1.0;"/><path d="M559.3438,160.1719 L559.5156,160.25 C559.7344,159.9375 559.9375,159.8438 560.2344,159.8438 C560.5313,159.8438 560.8125,159.9844 560.9688,160.25 C561.0625,160.4063 561.0781,160.5313 561.0781,160.9688 L561.0781,162.3906 C561.0781,162.8125 561.0469,163 560.9375,163.1563 C560.7656,163.375 560.5,163.5156 560.2344,163.5156 C560.0156,163.5156 559.7813,163.4063 559.6406,163.2656 C559.5,163.1406 559.4688,163.0156 559.4063,162.6094 C559.3125,162.2031 559.1406,161.9844 558.6563,161.7031 C558.1875,161.4531 557.5781,161.2969 557,161.2969 C555.2656,161.2969 554.0156,162.6094 554.0156,164.3906 L554.0156,165.4844 C554.0156,167.1875 555.3125,168.2813 557.3594,168.2813 C558.125,168.2813 558.8125,168.1563 559.2344,167.8906 C559.4219,167.7969 559.4219,167.7969 559.875,167.3125 C560.0625,167.125 560.2656,167.0469 560.4844,167.0469 C560.9531,167.0469 561.3438,167.4375 561.3438,167.8906 C561.3438,168.2813 561.0156,168.7344 560.4375,169.1406 C559.6875,169.6875 558.5313,169.9844 557.3125,169.9844 C554.4219,169.9844 552.3125,168.0938 552.3125,165.5156 L552.3125,164.3906 C552.3125,161.6719 554.3125,159.5938 556.9375,159.5938 C557.8125,159.5938 558.4063,159.7344 559.3438,160.1719 Z "/><text fill="#000000" font-family="sans-serif" font-size="12" lengthAdjust="spacingAndGlyphs" textLength="48" x="571" y="168.6543">fstream</text><line style="stroke: #A80036; stroke-width: 1.5;" x1="543" x2="621" y1="180.5" y2="180.5"/><line style="stroke: #A80036; stroke-width: 1.5;" x1="543" x2="621" y1="188.5" y2="188.5"/><!--link compression.RleCompressor to compression.fstream--><path d="M493.341,172.5 C511.44,172.5 527.996,172.5 541.774,172.5 " fill="none" id="compression.RleCompressor-compression.fstream" style="stroke: #A80036; stroke-width: 1.0;"/><polygon fill="#A80036" points="480.244,172.5,486.244,176.5,492.244,172.5,486.244,168.5,480.244,172.5" style="stroke: #A80036; stroke-width: 1.0;"/><text fill="#000000" font-family="sans-serif" font-size="13" lengthAdjust="spacingAndGlyphs" textLength="25" x="498.5" y="165.5669">files</text><text fill="#000000" font-family="sans-serif" font-size="13" lengthAdjust="spacingAndGlyphs" textLength="8" x="488.3387" y="169.295">1</text><text fill="#000000" font-family="sans-serif" font-size="13" lengthAdjust="spacingAndGlyphs" textLength="8" x="525.8962" y="168.2428">2</text><!--
@startuml
namespace compression {

class RleCompressor {
   -int threshold_;
   -int repetitionCode_;
   -float rate_;
   +RleCompressor(int threshold, int repetitionCode);
   +~RleCompressor();
   +int getThreshold() const;
   +int getRepetitionCode() const;
   +float getRate() const;
   +void setThreshold(const int threshold);
   +void setRepetitionCode(const int repetitionCode);
   +void compress(string inputfile, string outputfile);
   +void decompress(string inputfile, string outputfile);
   +friend ostream &operator<<(ostream &os, Compressor &compressor);
   +friend istream &operator>>(istream &is, Compressor &compressor);
}

RleCompressor "1" *-right- "2" fstream: files

}
@enduml

PlantUML version 1.2019.05beta2(Unknown compile time)
(GPL source distribution)
Java Runtime: Java(TM) SE Runtime Environment
JVM: Java HotSpot(TM) 64-Bit Server VM
Java Version: 1.7.0_25-b15
Operating System: Linux
Default Encoding: UTF-8
Language: en
Country: US
--></g></svg>