<?xml version="1.0" encoding="UTF-8" standalone="no"?><svg xmlns="http://www.w3.org/2000/svg" xmlns:xlink="http://www.w3.org/1999/xlink" contentScriptType="application/ecmascript" contentStyleType="text/css" height="246px" preserveAspectRatio="none" style="width:628px;height:246px;" version="1.1" viewBox="0 0 628 246" width="628px" zoomAndPan="magnify"><defs><filter height="300%" id="f14a4fk2w349z9" width="300%" x="-1" y="-1"><feGaussianBlur result="blurOut" stdDeviation="2.0"/><feColorMatrix in="blurOut" result="blurOut2" type="matrix" values="0 0 0 0 0 0 0 0 0 0 0 0 0 0 0 0 0 0 .4 0"/><feOffset dx="4.0" dy="4.0" in="blurOut2" result="blurOut3"/><feBlend in="SourceGraphic" in2="blurOut3" mode="normal"/></filter></defs><g><!--class fstream--><rect fill="#FEFECE" filter="url(#f14a4fk2w349z9)" height="48" id="fstream" style="stroke: #A80036; stroke-width: 1.5;" width="80" x="537" y="97.5"/><ellipse cx="552" cy="113.5" fill="#ADD1B2" rx="11" ry="11" style="stroke: #A80036; stroke-width: 1.0;"/><path d="M554.3438,109.1719 L554.5156,109.25 C554.7344,108.9375 554.9375,108.8438 555.2344,108.8438 C555.5313,108.8438 555.8125,108.9844 555.9688,109.25 C556.0625,109.4063 556.0781,109.5313 556.0781,109.9688 L556.0781,111.3906 C556.0781,111.8125 556.0469,112 555.9375,112.1563 C555.7656,112.375 555.5,112.5156 555.2344,112.5156 C555.0156,112.5156 554.7813,112.4063 554.6406,112.2656 C554.5,112.1406 554.4688,112.0156 554.4063,111.6094 C554.3125,111.2031 554.1406,110.9844 553.6563,110.7031 C553.1875,110.4531 552.5781,110.2969 552,110.2969 C550.2656,110.2969 549.0156,111.6094 549.0156,113.3906 L549.0156,114.4844 C549.0156,116.1875 550.3125,117.2813 552.3594,117.2813 C553.125,117.2813 553.8125,117.1563 554.2344,116.8906 C554.4219,116.7969 554.4219,116.7969 554.875,116.3125 C555.0625,116.125 555.2656,116.0469 555.4844,116.0469 C555.9531,116.0469 556.3438,116.4375 556.3438,116.8906 C556.3438,117.2813 556.0156,117.7344 555.4375,118.1406 C554.6875,118.6875 553.5313,118.9844 552.3125,118.9844 C549.4219,118.9844 547.3125,117.0938 547.3125,114.5156 L547.3125,113.3906 C547.3125,110.6719 549.3125,108.5938 551.9375,108.5938 C552.8125,108.5938 553.4063,108.7344 554.3438,109.1719 Z "/><text fill="#000000" font-family="sans-serif" font-size="12" lengthAdjust="spacingAndGlyphs" textLength="48" x="566" y="117.6543">fstream</text><line style="stroke: #A80036; stroke-width: 1.5;" x1="538" x2="616" y1="129.5" y2="129.5"/><line style="stroke: #A80036; stroke-width: 1.5;" x1="538" x2="616" y1="137.5" y2="137.5"/><!--class Compresseur--><rect fill="#FEFECE" filter="url(#f14a4fk2w349z9)" height="227.2656" id="Compresseur" style="stroke: #A80036; stroke-width: 1.5;" width="472" x="6" y="8"/><ellipse cx="196.25" cy="24" fill="#ADD1B2" rx="11" ry="11" style="stroke: #A80036; stroke-width: 1.0;"/><path d="M198.5938,19.6719 L198.7656,19.75 C198.9844,19.4375 199.1875,19.3438 199.4844,19.3438 C199.7813,19.3438 200.0625,19.4844 200.2188,19.75 C200.3125,19.9063 200.3281,20.0313 200.3281,20.4688 L200.3281,21.8906 C200.3281,22.3125 200.2969,22.5 200.1875,22.6563 C200.0156,22.875 199.75,23.0156 199.4844,23.0156 C199.2656,23.0156 199.0313,22.9063 198.8906,22.7656 C198.75,22.6406 198.7188,22.5156 198.6563,22.1094 C198.5625,21.7031 198.3906,21.4844 197.9063,21.2031 C197.4375,20.9531 196.8281,20.7969 196.25,20.7969 C194.5156,20.7969 193.2656,22.1094 193.2656,23.8906 L193.2656,24.9844 C193.2656,26.6875 194.5625,27.7813 196.6094,27.7813 C197.375,27.7813 198.0625,27.6563 198.4844,27.3906 C198.6719,27.2969 198.6719,27.2969 199.125,26.8125 C199.3125,26.625 199.5156,26.5469 199.7344,26.5469 C200.2031,26.5469 200.5938,26.9375 200.5938,27.3906 C200.5938,27.7813 200.2656,28.2344 199.6875,28.6406 C198.9375,29.1875 197.7813,29.4844 196.5625,29.4844 C193.6719,29.4844 191.5625,27.5938 191.5625,25.0156 L191.5625,23.8906 C191.5625,21.1719 193.5625,19.0938 196.1875,19.0938 C197.0625,19.0938 197.6563,19.2344 198.5938,19.6719 Z "/><text fill="#000000" font-family="sans-serif" font-size="12" lengthAdjust="spacingAndGlyphs" textLength="83" x="216.75" y="28.1543">Compresseur</text><line style="stroke: #A80036; stroke-width: 1.5;" x1="7" x2="477" y1="40" y2="40"/><text fill="#000000" font-family="sans-serif" font-size="11" lengthAdjust="spacingAndGlyphs" textLength="49" x="12" y="54.2104">int seuil;</text><text fill="#000000" font-family="sans-serif" font-size="11" lengthAdjust="spacingAndGlyphs" textLength="105" x="12" y="67.0151">int codeRepetition;</text><text fill="#000000" font-family="sans-serif" font-size="11" lengthAdjust="spacingAndGlyphs" textLength="57" x="12" y="79.8198">float taux;</text><line style="stroke: #A80036; stroke-width: 1.5;" x1="7" x2="477" y1="86.4141" y2="86.4141"/><text fill="#000000" font-family="sans-serif" font-size="11" lengthAdjust="spacingAndGlyphs" textLength="272" x="26" y="100.6245">Compresseur(int unseuil, int uncodeRepetition);</text><text fill="#000000" font-family="sans-serif" font-size="11" lengthAdjust="spacingAndGlyphs" textLength="111" x="26" y="113.4292">int getSeuil() const;</text><text fill="#000000" font-family="sans-serif" font-size="11" lengthAdjust="spacingAndGlyphs" textLength="168" x="26" y="126.2339">int getCodeRepetition() const;</text><text fill="#000000" font-family="sans-serif" font-size="11" lengthAdjust="spacingAndGlyphs" textLength="121" x="26" y="139.0386">float getTaux() const;</text><text fill="#000000" font-family="sans-serif" font-size="11" lengthAdjust="spacingAndGlyphs" textLength="179" x="26" y="151.8433">void setSeuil(const int unseuil);</text><text fill="#000000" font-family="sans-serif" font-size="11" lengthAdjust="spacingAndGlyphs" textLength="292" x="26" y="164.6479">void setCodeRepetition(const int uncodeRepetition);</text><text fill="#000000" font-family="sans-serif" font-size="11" lengthAdjust="spacingAndGlyphs" textLength="331" x="26" y="177.4526">void compresser(string fichierEntree, string fichierSortie);</text><text fill="#000000" font-family="sans-serif" font-size="11" lengthAdjust="spacingAndGlyphs" textLength="345" x="26" y="190.2573">void decompresser(string fichierEntree, string fichierSortie);</text><polygon fill="#4177AF" points="17,196.7539,13,202.7539,21,202.7539" style="stroke: #1963A0; stroke-width: 1.0;"/><text fill="#000000" font-family="sans-serif" font-size="11" lengthAdjust="spacingAndGlyphs" textLength="90" x="26" y="203.062">Compresseur();</text><text fill="#000000" font-family="sans-serif" font-size="11" lengthAdjust="spacingAndGlyphs" textLength="446" x="26" y="215.8667">friend ostream &amp;operator&lt;&lt;(ostream &amp;os, Compresseur &amp;unCompresseur);</text><text fill="#000000" font-family="sans-serif" font-size="11" lengthAdjust="spacingAndGlyphs" textLength="434" x="26" y="228.6714">friend istream &amp;operator&gt;&gt;(istream &amp;is, Compresseur &amp;unCompresseur);</text><!--link Compresseur to fstream--><path d="M491.504,121.5 C508.415,121.5 523.845,121.5 536.799,121.5 " fill="none" id="Compresseur-fstream" style="stroke: #A80036; stroke-width: 1.0;"/><polygon fill="#A80036" points="478.301,121.5,484.301,125.5,490.301,121.5,484.301,117.5,478.301,121.5" style="stroke: #A80036; stroke-width: 1.0;"/><text fill="#000000" font-family="sans-serif" font-size="13" lengthAdjust="spacingAndGlyphs" textLength="22" x="496.5" y="114.5669">flux</text><text fill="#000000" font-family="sans-serif" font-size="13" lengthAdjust="spacingAndGlyphs" textLength="8" x="486.1859" y="118.3186">1</text><text fill="#000000" font-family="sans-serif" font-size="13" lengthAdjust="spacingAndGlyphs" textLength="8" x="520.9257" y="117.2428">2</text><!--
@startuml
class fstream {
}

class Compresseur {
    int seuil;
    int codeRepetition;
    float taux;

    Compresseur(int unseuil, int uncodeRepetition);
    int getSeuil() const;
    int getCodeRepetition() const;
    float getTaux() const;
    void setSeuil(const int unseuil);
    void setCodeRepetition(const int uncodeRepetition);
    void compresser(string fichierEntree, string fichierSortie);
    void decompresser(string fichierEntree, string fichierSortie);
    ~Compresseur();
    friend ostream &operator<<(ostream &os, Compresseur &unCompresseur);
    friend istream &operator>>(istream &is, Compresseur &unCompresseur);
}

Compresseur "1" *-right- "2" fstream: flux
@enduml

PlantUML version 1.2018.02(Fri Mar 09 17:20:44 UTC 2018)
(GPL source distribution)
Java Runtime: Java(TM) SE Runtime Environment
JVM: Java HotSpot(TM) 64-Bit Server VM
Java Version: 1.7.0_25-b15
Operating System: Linux
Default Encoding: UTF-8
Language: en
Country: US
--></g></svg>